<?xml version="1.0" encoding="utf-8"?>
<!-- Generator: Adobe Illustrator 22.0.0, SVG Export Plug-In . SVG Version: 6.00 Build 0)  -->
<svg version="1.1" id="图层_1" xmlns="http://www.w3.org/2000/svg" xmlns:xlink="http://www.w3.org/1999/xlink" x="0px" y="0px"
	 viewBox="0 0 16 16" style="enable-background:new 0 0 16 16;" xml:space="preserve">
<style type="text/css">
	.st0{fill:#49AEE2;}
	.st1{fill:#F7F7F7;}
</style>
<g>
	<circle class="st0" cx="8" cy="8" r="8"/>
	<g>
		<path class="st1" d="M10,7.4c0-0.5-0.1-0.9-0.3-1.3C9.6,6,9.5,5.9,9.4,5.8C9,5.4,8.5,5.2,7.9,5.2c-0.4,0-0.8,0.1-1,0.2
			C6.6,5.6,6.4,5.8,6.2,6.1C6,5.8,5.8,5.6,5.5,5.4c-0.3-0.2-0.6-0.2-1-0.2C4.2,5.2,4,5.2,3.7,5.4C3.5,5.5,3.3,5.7,3.1,5.9V5.3H2.2
			v5.6h0.9V8c0-0.6,0.1-1.1,0.3-1.4C3.7,6.2,4,6.1,4.4,6.1c0.4,0,0.7,0.2,0.9,0.5C5.5,6.8,5.6,7.3,5.6,8v2.8h1V7.9
			c0-0.7,0.1-1.1,0.3-1.4c0.2-0.3,0.5-0.4,0.9-0.4c0.4,0,0.7,0.1,0.9,0.4C8.9,6.7,9,7.1,9,7.6v0.7c0,0.3,0.1,0.5,0.2,0.8
			C9.3,9.4,9.5,9.7,9.8,10c0.1,0.1,0.2,0.2,0.2,0.2V8.5c0-0.1,0-0.3,0-0.4c0-0.2,0-0.3,0-0.4V7.4z"/>
		<path class="st1" d="M14.1,7c-0.1-0.3-0.3-0.6-0.6-0.9c-0.3-0.3-0.6-0.5-0.9-0.6c-0.3-0.1-0.7-0.2-1-0.2c-0.4,0-0.7,0.1-1,0.2
			C10.3,5.7,10,5.9,9.7,6.2l0,0C9.5,6.4,9.3,6.7,9.2,7C9.1,7.3,9,7.5,9,7.8C9,7.9,9,8,9,8.1s0,0.2,0,0.3c0,0.3,0.1,0.5,0.2,0.8
			C9.3,9.4,9.5,9.7,9.8,10c0.1,0.1,0.2,0.2,0.2,0.2c0.2,0.2,0.4,0.3,0.6,0.4c0.3,0.1,0.7,0.2,1.1,0.2c0.4,0,0.7-0.1,1.1-0.2
			c0.3-0.2,0.6-0.4,0.9-0.7C13.8,9.7,14,9.4,14.1,9c0.1-0.3,0.2-0.7,0.2-1S14.3,7.3,14.1,7z M12.9,9.4c-0.3,0.3-0.7,0.5-1.2,0.5
			c-0.5,0-0.9-0.2-1.2-0.5c-0.2-0.2-0.4-0.5-0.5-0.9c0-0.1,0-0.3,0-0.4c0-0.2,0-0.3,0-0.4c0.1-0.3,0.2-0.6,0.5-0.9
			c0.3-0.4,0.7-0.5,1.2-0.5c0.5,0,0.9,0.2,1.2,0.5c0.3,0.3,0.5,0.8,0.5,1.3C13.4,8.6,13.2,9,12.9,9.4z"/>
	</g>
</g>
</svg>
